<?xml version="1.0" standalone="no"?>
<!DOCTYPE svg PUBLIC "-//W3C//DTD SVG 20010904//EN"
 "http://www.w3.org/TR/2001/REC-SVG-20010904/DTD/svg10.dtd">
<svg version="1.0" xmlns="http://www.w3.org/2000/svg"
 width="512.000000pt" height="512.000000pt" viewBox="0 0 512.000000 512.000000"
 preserveAspectRatio="xMidYMid meet">
<metadata>
Created by potrace 1.16, written by Peter Selinger 2001-2019
</metadata>
<g transform="translate(0.000000,512.000000) scale(0.100000,-0.100000)"
fill="#000000" stroke="none">
<path d="M2295 5089 c-38 -16 -114 -48 -169 -71 l-99 -41 6 -92 5 -92 -47 -47
-47 -46 -96 0 -96 0 -12 -30 -12 -30 -304 0 -304 0 0 -80 0 -80 270 0 c149 0
270 -2 270 -4 0 -2 -9 -25 -20 -51 -11 -26 -20 -52 -20 -58 0 -7 31 -39 69
-72 l70 -60 0 -61 1 -62 -70 -62 c-38 -34 -70 -67 -70 -73 0 -6 30 -85 68
-175 l67 -165 94 7 95 7 47 -47 47 -46 -5 -97 -5 -96 165 -67 c91 -38 169 -68
174 -68 5 0 37 32 72 70 l62 70 62 -1 62 0 60 -70 c33 -38 65 -69 70 -69 6 0
83 30 173 67 l162 67 0 96 0 96 48 47 48 47 90 -6 90 -7 71 169 71 169 -69 66
-69 66 0 65 0 66 70 64 69 63 -23 55 -24 55 536 3 c600 2 598 3 665 -66 72
-74 67 37 67 -1454 l0 -1344 -97 1 c-54 0 -117 -4 -140 -8 l-43 -9 0 416 0
416 -530 0 -530 0 0 -574 0 -573 -42 21 c-34 17 -66 22 -150 24 l-108 4 0 304
0 304 -530 0 -530 0 0 -70 c0 -38 -1 -70 -2 -70 -2 0 -38 7 -81 15 -43 8 -108
15 -143 15 l-64 0 0 300 0 300 -530 0 -530 0 0 -410 0 -410 -145 0 -145 0 0
1336 c0 1024 3 1346 12 1378 16 54 90 128 144 144 26 8 112 12 238 12 l196 0
0 81 0 81 -227 -4 c-209 -4 -233 -6 -285 -27 -81 -31 -159 -106 -200 -189
l-33 -67 -3 -1372 -2 -1373 -115 0 -115 0 0 -80 0 -80 458 2 457 3 95 44 c120
55 298 113 437 143 91 19 137 23 288 23 168 -1 185 -3 260 -28 186 -62 287
-159 396 -379 l43 -87 422 -3 423 -3 31 -30 c42 -40 60 -76 60 -122 0 -41 -28
-95 -63 -124 -44 -36 -95 -39 -611 -39 l-506 0 0 -81 0 -80 548 3 547 3 57 27
c65 30 127 90 157 151 20 40 36 50 502 304 484 264 527 283 623 283 62 0 164
-34 219 -73 l47 -33 -378 -237 c-207 -130 -385 -242 -394 -249 -16 -12 -14
-18 25 -80 l43 -67 467 292 c257 161 467 297 467 303 0 25 -106 148 -163 191
l-62 45 -5 1402 -5 1401 -29 62 c-31 69 -107 148 -172 181 -78 39 -124 42
-719 42 l-573 0 -11 30 -10 30 -98 0 -99 0 -42 43 -41 42 -3 99 -3 98 -165 69
-165 69 -65 -70 -65 -70 -64 0 -64 0 -66 69 -66 70 -70 -30z m267 -269 l139 0
48 52 48 52 64 -25 64 -25 -3 -75 -3 -74 96 -95 96 -95 75 0 76 0 26 -64 26
-65 -52 -45 -52 -46 0 -140 0 -139 51 -52 52 -53 -27 -63 -27 -63 -71 3 -71 4
-99 -99 -99 -98 6 -70 6 -71 -67 -28 -68 -27 -49 55 -49 56 -136 0 -137 0 -50
-55 -50 -56 -66 27 -66 26 5 77 4 76 -95 93 -94 94 -76 -4 -76 -3 -26 65 -26
65 56 52 55 52 0 135 0 134 -56 49 -55 49 27 68 27 69 72 -6 71 -6 98 98 98
99 -3 71 -4 72 64 27 65 27 49 -52 50 -53 139 0z m-982 -2770 l0 -220 -22 -4
c-13 -2 -75 -14 -138 -25 -128 -24 -366 -100 -485 -155 -43 -20 -82 -36 -86
-36 -5 0 -9 149 -9 330 l0 330 370 0 370 0 0 -220z m2708 -156 l-3 -377 -364
-198 c-200 -110 -366 -199 -368 -199 -1 0 -3 259 -3 575 l0 575 370 0 370 0
-2 -376z m-1358 -339 l0 -225 -196 2 -196 3 -57 100 c-61 109 -143 200 -235
261 -42 27 -56 43 -56 60 l0 24 370 0 370 0 0 -225z"/>
<path d="M2431 4530 c-96 -35 -172 -106 -218 -207 -37 -78 -39 -208 -4 -295
116 -298 557 -312 693 -23 80 172 26 380 -126 481 -29 19 -75 42 -101 50 -68
20 -179 17 -244 -6z m219 -161 c60 -27 79 -45 106 -104 45 -94 24 -189 -56
-258 -189 -162 -455 74 -321 285 55 87 174 121 271 77z"/>
<path d="M880 4070 l0 -80 80 0 80 0 0 80 0 80 -80 0 -80 0 0 -80z"/>
<path d="M1180 4070 l0 -80 80 0 80 0 0 80 0 80 -80 0 -80 0 0 -80z"/>
<path d="M3790 4070 l0 -80 80 0 80 0 0 80 0 80 -80 0 -80 0 0 -80z"/>
<path d="M4090 4070 l0 -80 80 0 80 0 0 80 0 80 -80 0 -80 0 0 -80z"/>
<path d="M680 2950 l0 -380 530 0 530 0 0 380 0 380 -530 0 -530 0 0 -380z
m900 0 l0 -220 -370 0 -370 0 0 220 0 220 370 0 370 0 0 -220z"/>
<path d="M3390 2950 l0 -380 530 0 530 0 0 380 0 380 -530 0 -530 0 0 -380z
m900 0 l0 -220 -370 0 -370 0 0 220 0 220 370 0 370 0 0 -220z"/>
<path d="M2030 2590 l0 -510 530 0 530 0 0 510 0 510 -530 0 -530 0 0 -510z
m900 0 l0 -350 -370 0 -370 0 0 350 0 350 370 0 370 0 0 -350z"/>
<path d="M3527 500 c-246 -154 -469 -289 -497 -300 -83 -33 -177 -44 -254 -31
-37 7 -432 129 -877 271 l-809 260 -545 0 -545 0 0 -80 0 -80 529 0 529 0 812
-260 c909 -291 925 -295 1080 -267 47 8 111 25 142 36 60 23 960 581 966 600
4 12 -67 131 -78 131 -3 0 -207 -126 -453 -280z"/>
</g>
</svg>
