<?xml version="1.0" standalone="no"?>
<!DOCTYPE svg PUBLIC "-//W3C//DTD SVG 20010904//EN"
 "http://www.w3.org/TR/2001/REC-SVG-20010904/DTD/svg10.dtd">
<svg version="1.0" xmlns="http://www.w3.org/2000/svg"
 width="512.000000pt" height="512.000000pt" viewBox="0 0 512.000000 512.000000"
 preserveAspectRatio="xMidYMid meet">
<metadata>
Created by potrace 1.16, written by Peter Selinger 2001-2019
</metadata>
<g transform="translate(0.000000,512.000000) scale(0.100000,-0.100000)"
fill="#000000" stroke="none">
<path d="M725 5105 c-291 -65 -519 -247 -645 -519 -82 -174 -75 12 -75 -2026
0 -2038 -7 -1852 75 -2026 119 -256 335 -438 605 -510 67 -18 141 -19 1880
-19 2032 0 1847 -7 2021 75 210 98 356 244 454 454 82 174 75 -12 75 2026 0
2038 7 1852 -75 2026 -98 210 -244 356 -454 454 -174 82 18 74 -2001 77 -1470
1 -1811 -1 -1860 -12z m3627 -308 c219 -65 386 -234 446 -450 16 -58 17 -186
17 -1787 0 -1601 -1 -1729 -17 -1787 -61 -219 -232 -390 -451 -451 -58 -16
-186 -17 -1787 -17 -1601 0 -1729 1 -1787 17 -219 61 -390 232 -451 451 -16
58 -17 186 -17 1787 0 1928 -6 1769 71 1922 49 98 163 212 259 260 90 45 130
58 213 68 37 4 828 7 1757 6 1567 -1 1694 -3 1747 -19z"/>
<path d="M1460 4301 c-131 -42 -233 -127 -286 -238 l-29 -62 -195 0 c-214 -1
-241 -7 -285 -65 -29 -40 -28 -139 2 -182 41 -58 69 -64 285 -65 l193 0 29
-60 c34 -73 121 -163 192 -201 236 -126 535 -35 653 200 l31 62 1156 0 c1279
0 1198 -4 1247 64 17 24 22 45 22 93 0 71 -19 104 -75 134 -33 18 -85 19
-1192 19 l-1158 0 -31 62 c-59 117 -174 210 -303 244 -71 19 -189 17 -256 -5z
m233 -324 c97 -74 85 -222 -23 -277 -51 -26 -97 -25 -150 3 -50 26 -90 90 -90
141 0 51 40 118 85 144 54 31 129 26 178 -11z"/>
<path d="M3440 3029 c-135 -22 -278 -127 -339 -250 l-32 -64 -1174 -5 -1173
-5 -27 -25 c-80 -75 -72 -196 17 -250 32 -20 53 -20 1194 -20 l1161 0 32 -64
c113 -230 403 -326 637 -211 86 42 177 133 217 218 l27 57 197 0 c180 0 201 2
231 20 96 59 96 201 0 260 -30 18 -51 20 -231 20 l-197 0 -27 57 c-64 134
-210 242 -358 263 -79 11 -80 11 -155 -1z m162 -325 c60 -31 97 -109 84 -179
-9 -47 -70 -110 -121 -124 -99 -27 -205 55 -205 159 0 123 131 200 242 144z"/>
<path d="M2111 1734 c-123 -33 -232 -122 -291 -237 l-35 -67 -515 0 c-482 0
-518 -1 -550 -19 -57 -30 -75 -63 -75 -136 0 -73 18 -106 75 -136 32 -18 68
-19 551 -19 l517 0 12 -32 c43 -107 156 -216 269 -259 69 -26 198 -36 270 -20
131 28 265 130 322 247 l32 64 836 0 c795 0 838 1 871 19 56 30 75 63 75 134
0 48 -5 69 -22 93 -48 67 -3 64 -926 64 l-834 0 -32 64 c-37 75 -132 170 -207
206 -108 51 -234 64 -343 34z m224 -328 c46 -35 65 -74 65 -131 0 -55 -18 -93
-60 -128 -112 -95 -291 14 -264 159 8 43 56 101 99 121 45 20 118 11 160 -21z"/>
</g>
</svg>
