<?xml version="1.0" standalone="no"?>
<!DOCTYPE svg PUBLIC "-//W3C//DTD SVG 20010904//EN"
 "http://www.w3.org/TR/2001/REC-SVG-20010904/DTD/svg10.dtd">
<svg version="1.0" xmlns="http://www.w3.org/2000/svg"
 width="512.000000pt" height="512.000000pt" viewBox="0 0 512.000000 512.000000"
 preserveAspectRatio="xMidYMid meet">
<metadata>
Created by potrace 1.16, written by Peter Selinger 2001-2019
</metadata>
<g transform="translate(0.000000,512.000000) scale(0.100000,-0.100000)"
fill="#000000" stroke="none">
<path d="M1651 5022 c-60 -30 -69 -52 -114 -295 l-42 -226 -76 -31 c-42 -16
-79 -30 -83 -30 -4 0 -90 56 -191 125 -101 69 -197 128 -214 131 -76 16 -95 4
-290 -189 -182 -181 -211 -219 -211 -277 0 -42 10 -59 148 -260 l119 -173 -32
-76 c-17 -41 -38 -78 -46 -83 -8 -4 -111 -26 -229 -48 -229 -42 -252 -51 -282
-111 -16 -30 -18 -66 -18 -289 0 -230 2 -259 20 -297 13 -29 30 -48 53 -59 19
-9 132 -35 251 -58 l217 -41 32 -80 33 -79 -129 -189 c-145 -212 -156 -241
-119 -313 11 -21 98 -116 194 -210 189 -188 222 -208 292 -187 19 6 117 67
218 136 l184 125 74 -31 c41 -17 77 -32 79 -33 2 -2 23 -116 46 -254 26 -151
50 -261 60 -276 33 -51 70 -64 188 -64 76 0 117 4 137 15 122 63 94 250 -41
271 -29 5 -41 12 -44 28 -3 11 -20 114 -39 227 -19 114 -41 221 -50 238 -21
40 -45 55 -139 86 -42 13 -113 43 -157 65 -60 30 -91 40 -128 40 -46 0 -59 -7
-227 -121 l-178 -121 -75 75 -76 76 100 145 c54 80 109 162 121 183 35 58 30
109 -17 203 -22 44 -52 114 -66 157 -29 89 -45 117 -77 138 -13 8 -108 30
-212 50 -105 19 -200 38 -213 40 -22 5 -23 8 -20 113 l3 107 200 37 c110 21
212 43 228 49 37 16 60 50 87 134 12 39 42 111 66 161 69 143 69 144 -77 358
l-122 178 76 76 76 76 180 -122 c215 -145 211 -144 352 -78 52 25 126 54 164
67 85 27 118 49 135 89 7 17 29 119 50 228 l36 197 109 0 109 0 36 -197 c21
-109 43 -211 50 -228 17 -40 50 -62 135 -89 39 -12 112 -42 162 -67 141 -67
138 -68 354 78 l180 122 76 -76 76 -76 -122 -178 c-146 -214 -146 -215 -77
-358 24 -50 54 -122 66 -161 28 -84 44 -112 80 -130 15 -8 122 -31 238 -52
l212 -38 0 -30 c0 -55 20 -103 56 -134 29 -26 43 -31 87 -31 34 0 63 7 84 20
54 33 63 63 63 211 0 121 -2 136 -22 165 -12 18 -36 39 -53 47 -16 8 -127 31
-245 52 -118 21 -220 43 -226 49 -7 6 -25 43 -41 82 l-30 71 124 179 c195 283
197 263 -55 516 -127 128 -197 191 -220 199 -68 22 -100 9 -300 -129 -132 -89
-194 -127 -204 -121 -7 5 -42 20 -78 34 l-65 25 -42 227 c-45 243 -54 265
-114 295 -30 16 -66 18 -294 18 -228 0 -264 -2 -294 -18z"/>
<path d="M1860 3889 c-281 -29 -529 -246 -600 -525 -24 -95 -26 -251 -4 -344
33 -141 131 -298 242 -385 208 -166 505 -202 747 -90 365 169 513 612 324 975
-98 189 -314 343 -510 365 -107 12 -125 12 -199 4z m226 -311 c283 -104 366
-454 160 -676 -129 -140 -347 -172 -512 -76 -60 35 -141 125 -172 191 -24 52
-27 70 -27 168 0 105 2 114 33 178 98 198 318 290 518 215z"/>
<path d="M3370 2901 c-52 -27 -68 -64 -99 -229 -15 -82 -31 -154 -35 -160 -4
-6 -24 -17 -45 -23 l-39 -12 -127 88 c-210 145 -220 143 -422 -58 -203 -204
-204 -213 -57 -427 85 -124 86 -125 75 -162 -7 -21 -19 -42 -29 -46 -9 -5 -83
-21 -163 -36 -238 -45 -239 -46 -239 -336 0 -290 1 -291 239 -336 80 -15 154
-31 163 -36 10 -4 22 -25 29 -46 11 -37 10 -38 -75 -162 -147 -214 -146 -223
57 -427 202 -201 212 -203 422 -58 l127 88 39 -12 c21 -6 41 -17 45 -23 4 -6
20 -78 35 -160 46 -247 48 -248 337 -248 225 0 259 8 294 67 9 15 28 93 43
173 14 80 28 152 31 161 4 14 56 39 82 39 6 0 68 -39 137 -86 210 -143 212
-143 423 69 l152 153 0 60 c0 58 -2 61 -90 191 -49 72 -90 138 -90 147 0 12
15 56 26 74 1 1 73 16 160 33 252 48 254 51 254 339 0 288 -2 291 -254 339
-87 17 -159 32 -160 33 -1 2 -9 19 -18 40 l-17 36 95 139 c93 136 94 139 94
197 l0 60 -152 153 c-211 212 -213 212 -423 69 -69 -47 -131 -86 -137 -86 -26
0 -78 25 -82 39 -3 9 -17 81 -31 161 -44 239 -46 240 -337 240 -179 0 -207 -2
-238 -19z m315 -413 c14 -78 33 -154 40 -169 17 -31 46 -52 100 -69 22 -6 80
-30 128 -52 125 -57 144 -54 298 52 l121 83 34 -35 34 -34 -85 -127 c-102
-153 -106 -176 -51 -285 18 -37 41 -92 51 -122 33 -102 57 -120 195 -145 47
-9 109 -21 138 -26 l52 -10 0 -49 0 -48 -47 -10 c-27 -6 -91 -18 -143 -27
-139 -25 -164 -45 -200 -160 -7 -22 -28 -70 -46 -107 -55 -109 -51 -132 51
-285 l85 -127 -34 -34 -34 -35 -121 83 c-154 106 -173 109 -298 52 -48 -22
-106 -46 -128 -52 -54 -17 -83 -38 -100 -69 -7 -15 -26 -91 -40 -169 l-27
-142 -49 0 c-42 0 -49 3 -53 23 -3 12 -17 80 -30 151 -31 158 -41 171 -171
220 -50 18 -108 43 -130 55 -76 40 -109 32 -252 -65 l-127 -85 -34 34 -35 35
83 120 c105 154 108 170 52 290 -22 48 -45 106 -52 130 -6 24 -26 59 -43 78
-33 36 -43 39 -279 84 l-58 11 0 49 0 49 58 11 c236 45 246 48 279 84 17 19
37 54 43 78 7 24 30 82 52 130 56 120 53 136 -52 290 l-83 120 35 35 34 34
127 -85 c143 -96 176 -105 252 -65 22 11 80 36 130 55 130 49 140 62 171 220
13 71 27 139 30 152 4 19 11 22 53 22 l49 0 27 -142z"/>
<path d="M3520 2023 c-251 -42 -440 -267 -440 -523 0 -137 54 -272 148 -367
98 -100 207 -150 347 -160 150 -10 283 39 397 146 214 201 221 534 17 746
-119 124 -302 186 -469 158z m206 -318 c56 -33 99 -91 114 -155 23 -98 -24
-202 -117 -257 -89 -52 -212 -33 -285 44 -124 131 -66 336 112 394 44 15 128
2 176 -26z"/>
</g>
</svg>
