<?xml version="1.0" standalone="no"?>
<!DOCTYPE svg PUBLIC "-//W3C//DTD SVG 20010904//EN"
 "http://www.w3.org/TR/2001/REC-SVG-20010904/DTD/svg10.dtd">
<svg version="1.0" xmlns="http://www.w3.org/2000/svg"
 width="512.000000pt" height="512.000000pt" viewBox="0 0 512.000000 512.000000"
 preserveAspectRatio="xMidYMid meet">
<metadata>
Created by potrace 1.16, written by Peter Selinger 2001-2019
</metadata>
<g transform="translate(0.000000,512.000000) scale(0.100000,-0.100000)"
fill="#000000" stroke="none">
<path d="M2735 5103 c-79 -28 -138 -68 -191 -126 -67 -74 -1175 -2083 -1199
-2172 -54 -210 46 -425 244 -523 l75 -37 1190 -3 c1064 -2 1196 -1 1245 14
144 41 251 144 301 290 25 71 28 205 6 277 -8 26 -270 512 -583 1079 -631
1145 -609 1112 -748 1179 -64 31 -79 34 -180 36 -86 3 -121 0 -160 -14z m219
-313 c27 -16 132 -199 594 -1037 508 -920 562 -1023 562 -1063 0 -51 -23 -92
-66 -121 -28 -18 -69 -19 -1165 -19 l-1136 0 -34 23 c-45 30 -71 82 -66 129 3
24 196 382 564 1050 459 832 565 1017 593 1036 42 28 110 30 154 2z"/>
<path d="M2827 4286 c-50 -18 -67 -34 -88 -81 -17 -36 -19 -73 -19 -390 0
-320 2 -354 19 -391 49 -108 208 -114 271 -12 19 31 20 51 20 404 0 368 0 371
-22 404 -46 67 -112 91 -181 66z"/>
<path d="M2827 3136 c-50 -18 -67 -34 -88 -81 -23 -51 -23 -80 0 -131 49 -108
208 -114 271 -12 73 120 -52 272 -183 224z"/>
<path d="M4573 2251 c-28 -9 -69 -29 -90 -43 -21 -14 -233 -202 -471 -418
-238 -215 -435 -390 -436 -388 -1 1 -8 28 -15 59 -26 120 -130 246 -251 303
l-65 31 -440 5 -440 5 -60 37 c-77 47 -189 92 -302 120 -72 18 -117 22 -253
22 -196 1 -302 -19 -462 -86 l-48 -20 -39 35 c-22 20 -59 46 -83 59 -43 23
-44 23 -458 23 l-415 0 -50 -25 c-64 -31 -134 -101 -165 -165 l-25 -50 0 -755
0 -755 25 -50 c31 -64 101 -134 165 -165 l50 -25 396 -3 c381 -3 398 -2 452
18 61 23 143 90 177 145 l22 35 1067 0 c702 0 1088 4 1127 11 132 23 278 85
389 164 79 57 145 125 703 728 556 599 537 573 537 757 0 105 -2 120 -27 170
-53 107 -138 184 -245 221 -73 25 -198 25 -270 0z m208 -320 c37 -37 40 -94 7
-137 -60 -78 -1051 -1133 -1089 -1160 -65 -46 -160 -92 -231 -111 -57 -15
-166 -17 -1105 -20 l-1043 -4 0 534 0 534 72 33 c256 118 549 101 782 -44 l81
-51 450 -5 c409 -5 453 -7 483 -23 96 -53 96 -201 0 -254 -30 -16 -76 -18
-533 -23 -449 -4 -502 -7 -524 -22 -42 -30 -61 -69 -61 -128 0 -62 20 -100 66
-131 28 -18 57 -19 600 -19 535 0 576 1 648 20 88 22 181 64 247 112 26 18
252 220 504 448 252 228 476 429 498 447 53 44 106 46 148 4z m-3788 -250 c16
-12 17 -73 17 -681 0 -609 -1 -669 -17 -681 -23 -20 -655 -21 -675 -1 -10 10
-14 145 -16 655 -2 353 0 657 3 675 4 21 14 36 28 42 12 5 162 8 333 7 247 -2
314 -5 327 -16z"/>
</g>
</svg>
